<svg xmlns="http://www.w3.org/2000/svg" width="14" height="14" viewBox="0 0 20 20"><g fill-rule="evenodd" transform="translate(-4 -4)"><path d="M20.99975,8 C20.44775,8 19.99975,7.552 19.99975,7 C19.99975,6.448 20.44775,6 20.99975,6 C21.55175,6 21.99975,6.448 21.99975,7 C21.99975,7.552 21.55175,8 20.99975,8 M21.99975,4 L14.82775,4 C14.29775,4 13.78875,4.21 13.41375,4.585 L4.58575,13.414 C3.80475,14.195 3.80475,15.461 4.58575,16.242 L11.75675,23.414 C12.53775,24.195 13.80475,24.195 14.58575,23.414 L23.41375,14.586 C23.78875,14.211 23.99975,13.702 23.99975,13.172 L23.99975,6 C23.99975,4.896 23.10375,4 21.99975,4" fill="white"/></g></svg>
